PathFileType	4	(X/Y/Z)	69_2_51_p0_0-187.trc
DataRate	CameraRate	NumFrames	NumMarkers	Units	OrigDataRate	OrigDataStartFrame	OrigNumFrames
52.0	52.0	5	27	m	52.0	47	188
Frame#	Time	RHip			RKnee			RAnkle			RBigToe			RSmallToe			RHeel			LHip			LKnee			LAnkle			LBigToe			LSmallToe			LHeel			Neck			Head			Nose			RShoulder			RElbow			RWrist			RThumb			RIndex			RPinky			LShoulder			LElbow			LWrist			LThumb			LIndex			LPinky			
		X1	Y1	Z1	X2	Y2	Z2	X3	Y3	Z3	X4	Y4	Z4	X5	Y5	Z5	X6	Y6	Z6	X7	Y7	Z7	X8	Y8	Z8	X9	Y9	Z9	X10	Y10	Z10	X11	Y11	Z11	X12	Y12	Z12	X13	Y13	Z13	X14	Y14	Z14	X15	Y15	Z15	X16	Y16	Z16	X17	Y17	Z17	X18	Y18	Z18	X19	Y19	Z19	X20	Y20	Z20	X21	Y21	Z21	X22	Y22	Z22	X23	Y23	Z23	X24	Y24	Z24	X25	Y25	Z25	X26	Y26	Z26	X27	Y27	Z27	
47	0.9038461538461539	0.2770940738369578	0.5291902232465711	0.47210848193860255	0.24544431703461417	0.5329997744441907	0.9113289479665747	0.19730467748402172	0.5971897253656389	1.3306304711758565	0.2493845939695876	0.4454069132148659	1.3330976934005456	0.2979527787723303	0.47865016389170695	1.3272822835815572	0.1517345018317864	0.6878949756361218	1.4006205707076715	0.08960691977435407	0.4898682764200107	0.47684672980132614	0.05202050296106751	0.5156343608002645	0.9237177304730516	0.03660498066212888	0.5630145621477519	1.3425850491037181	0.12214583035302182	0.3519584448180036	1.291594619434494	0.0512826680149644	0.41685578329891493	1.323410710460048	0.03933804796978162	0.6089316135829771	1.3918095907501027	0.20926894290110018	0.5254327025973656	-0.0021986706474351066	0.23975163380827397	0.479653608493388	-0.2600545207224664	0.18799500324935264	0.4122963952027617	-0.13457996846739748	0.3389668338460385	0.5408256086638702	0.05010929599044596	0.4842382636705423	0.3787021867310489	0.10746804154080308	0.4140482223121457	0.4451908867819918	-0.047850253159615	0.3489099779308679	0.4662261784825245	-0.11953337171141964	0.34712053246734403	0.44790449019267786	-0.14430365750876123	0.3892489761164976	0.42800960758644335	-0.10878699485113856	0.06700195762511438	0.4861687340307174	0.03628036144645588	-0.029846965324122267	0.46728761582171596	0.27587073095898884	-0.06493818469808854	0.3737475911740017	0.4712800204411558	-0.052131285114967056	0.33377408631177896	0.558275820153586	-0.07574296219954432	0.3420265673880977	0.5833896558793609	-0.12669370190464388	0.4148016401843785	0.6175872321903878
48	0.9230769230769231	0.2739133204603964	0.5247852599825246	0.4632179433919971	0.24645503219613105	0.5328836577024428	0.9069791841548385	0.20718811228068454	0.5835289517472161	1.3219197434879346	0.2492398355140968	0.4454946782790974	1.3335458660346333	0.2970593356835317	0.48004711392597266	1.3236984541422767	0.15452565786244432	0.6716724278241075	1.3973134730783467	0.07706226024397525	0.4991423564884019	0.47659892370899287	0.05235489310259344	0.5133576263040254	0.9181052545204081	0.03641822438599404	0.5610196678295795	1.3359521704787387	0.11438038666918528	0.37921417364889737	1.3075684293084069	0.05225591126855889	0.4171482322456894	1.3198925050779524	0.039157343909644884	0.6080708636825554	1.391627262619351	0.2056082782803681	0.524111189253669	-0.005220934183871141	0.24757457646920716	0.47048295589233247	-0.256949423779852	0.1867710496932097	0.42382988466233745	-0.1334118823224279	0.3420707004635394	0.5437416028186183	0.04991128859160283	0.48375779575338756	0.3876679416780043	0.10170163663253377	0.4064951607523761	0.4608723134099391	-0.039276949910206846	0.34890133160504855	0.4664008140260715	-0.1192606371051886	0.3496706755866705	0.46490601909633134	-0.14320467254773936	0.3891757333734437	0.45233410811351976	-0.08486832893618611	0.05815095578627103	0.497434674478266	0.03770895900499748	-0.03203699796369195	0.4802466202888467	0.27866051850301055	-0.06487099233135496	0.3736899069879314	0.4713665902474426	-0.054158129245975	0.34472876121650575	0.561989613924478	-0.0702901904530848	0.3434204340703464	0.5915365803354111	-0.11759425568534494	0.40313236376037187	0.6116629111447629
49	0.9423076923076923	0.27395435458400796	0.5246604669853421	0.4631835593268629	0.24636162308735443	0.5331154864651219	0.906967102279431	0.1975282481475793	0.5969116522229898	1.3305851309414305	0.2480908491170885	0.445368677027628	1.3383282864244428	0.29596788050090345	0.4798512739366977	1.328184489876996	0.1536947435169324	0.6732684084756533	1.3929675840235796	0.089490452449948	0.49013043226923647	0.47686565685097715	0.05244406278608878	0.5115784893532886	0.9129252855964335	0.03662262592212058	0.5628466810867997	1.3426500756203816	0.12047714832038495	0.36477986318627004	1.2986442647012222	0.05256530348620727	0.41699698528483564	1.3194843317389735	0.027288832513060225	0.6216862041621978	1.4058933979901156	0.2045087815485079	0.5373069080033573	-0.004056980364420392	0.2475832787651975	0.4703837897776398	-0.2569412882415645	0.1866196152047271	0.4246444489523265	-0.12982593340554208	0.3418902731739082	0.5559162321660562	0.04744528310990007	0.4801773115725535	0.38394231091352926	0.10321151939868364	0.4033615578884572	0.4449279513564168	-0.03837452002112035	0.348830031390888	0.4656012496580883	-0.11880579484127003	0.34710928305978683	0.447259176718447	-0.14485406719015548	0.38592146920938963	0.44709228606681495	-0.09201785023944146	0.05819731373166196	0.4974186488398077	0.03762795585286732	-0.03164227660820594	0.47907196652140194	0.2740579577612958	-0.06489293527984741	0.37390378243470906	0.4713193950728118	-0.05137431787498146	0.34919583788748304	0.5626888749765552	-0.06695653937208283	0.3481002051473153	0.5926615249927852	-0.11912842805856903	0.41402312981033235	0.6074055345548336
50	0.9615384615384616	0.28610880687824203	0.51471056437175	0.4674908327677282	0.24543316826762368	0.5330091530762051	0.9112880272845926	0.19758602223987853	0.5968138790557562	1.3304308852881266	0.24821146964911808	0.44485220535771386	1.3380571412128868	0.3062499775816493	0.4668151084266011	1.3151370354893257	0.15458481665575938	0.6716378513470708	1.397245140258763	0.08950885820557769	0.4901229502379756	0.47696900402641507	0.04878446281380763	0.508225607030136	0.9122615145922381	0.03662959475397918	0.5607638401388629	1.3358357982132298	0.12050745474604595	0.36470585634536434	1.2985478730820976	0.051427657490661284	0.4168848337964466	1.3232595557269897	0.03923649876158133	0.6082946583786316	1.391695671979683	0.2079901886283651	0.5388255288719783	-0.004227236756072432	0.2477725601007941	0.47000345644307656	-0.25353692256973764	0.19494648105752294	0.41341573643320795	-0.13409505575929914	0.3417615327644766	0.5554961821368728	0.051140952007064165	0.47293182084844004	0.39511903144324156	0.10295108693897695	0.3999216478034837	0.43892946699571583	-0.03814086356896658	0.34630255064474624	0.4478882424366432	-0.1201372646935436	0.3470733594919104	0.44659737765910124	-0.14499646214743467	0.38535893674839733	0.44390768736923936	-0.09395774644219784	0.06691683605946767	0.4867842198691353	0.03611777930098238	-0.0315555705498135	0.47905739804698944	0.2739907414465467	-0.06478535498933112	0.3738455816953058	0.4712842523869431	-0.05130594594426384	0.3494298842798967	0.5626835126834789	-0.06686318938724307	0.3484590795765867	0.5929107648483177	-0.10538636057374665	0.40625314188227646	0.6036396198209358
51	0.9807692307692307	0.28215148367129694	0.5107276213825669	0.45882990360234466	0.24541291808943927	0.5330425289883401	0.9113995760952788	0.207213520740386	0.5835941452322773	1.3218811734542086	0.258496876171831	0.43240913978344797	1.3248153393094706	0.29716482289082824	0.4907570449350909	1.3341523758033762	0.15276949072308346	0.685928457008284	1.404789680577686	0.08988896713192178	0.4882385759154695	0.47167178957448924	0.04878279656731558	0.5080587493277573	0.9120761509845619	0.03652047412099146	0.5611014310612369	1.3358197652694266	0.12032199278691294	0.36511157661005916	1.2986639610643615	0.05259246318007716	0.41678330017360593	1.3192830362908563	0.039225150635938746	0.6068329146337281	1.386528886138662	0.20796500760789763	0.538941841079951	-0.004287086939213541	0.247824799298054	0.47008754411957987	-0.2534561885872678	0.19499046309158105	0.41350539308866224	-0.133977713338717	0.3420809483538411	0.5558740328621152	0.04739800713567343	0.47292440867082847	0.3947297556973696	0.10508823975385319	0.3999256485581912	0.43559470063378014	-0.04277840790213128	0.3462288734545915	0.4472729414088159	-0.1194741155152285	0.34699982090921083	0.4462372467892175	-0.14527875011904487	0.37784238165667716	0.4457675684942169	-0.09294399432987933	0.06696495592126364	0.4870113049495487	0.03601853658327256	-0.028435618004341124	0.4811099086562503	0.2694223015996883	-0.0645085236247917	0.3726887636912724	0.4668750780413821	-0.048658802742866006	0.3533321865908044	0.5631611516823632	-0.06556283366653114	0.3470430350803135	0.5850637705265845	-0.10453814067311912	0.4062906949910739	0.6005389850971622
